<svg width="820" height="240" viewBox="0 0 820 240" fill="none" xmlns="http://www.w3.org/2000/svg">
  <defs>
    <linearGradient id="lockupBg" x1="24" y1="20" x2="196" y2="196" gradientUnits="userSpaceOnUse">
      <stop stop-color="#121826" />
      <stop offset="0.58" stop-color="#0A0F17" />
      <stop offset="1" stop-color="#05070B" />
    </linearGradient>
    <linearGradient id="lockupAccent" x1="66" y1="52" x2="170" y2="176" gradientUnits="userSpaceOnUse">
      <stop stop-color="#F8FAFC" />
      <stop offset="0.52" stop-color="#CFFFE7" />
      <stop offset="1" stop-color="#7CF2C6" />
    </linearGradient>
    <linearGradient id="lockupGlow" x1="154" y1="64" x2="180" y2="92" gradientUnits="userSpaceOnUse">
      <stop stop-color="#7CF2C6" />
      <stop offset="1" stop-color="#30C48D" />
    </linearGradient>
  </defs>
  <rect width="820" height="240" rx="56" fill="#020407"/>
  <rect x="24" y="24" width="192" height="192" rx="54" fill="url(#lockupBg)"/>
  <rect x="24.75" y="24.75" width="190.5" height="190.5" rx="53.25" stroke="rgba(255,255,255,0.08)" stroke-width="1.5"/>
  <path d="M78 72C78 64.268 84.268 58 92 58H164C168.418 58 172 61.5817 172 66C172 70.4183 168.418 74 164 74H102V108H150C154.418 108 158 111.582 158 116C158 120.418 154.418 124 150 124H102V166H166C170.418 166 174 169.582 174 174C174 178.418 170.418 182 166 182H92C84.268 182 78 175.732 78 168V72Z" fill="url(#lockupAccent)"/>
  <path d="M102 86H156C160.418 86 164 89.5817 164 94C164 98.4183 160.418 102 156 102H102V86Z" fill="#081019" fill-opacity="0.92"/>
  <path d="M102 136H146C150.418 136 154 139.582 154 144C154 148.418 150.418 152 146 152H102V136Z" fill="#081019" fill-opacity="0.92"/>
  <circle cx="164" cy="72" r="9" fill="url(#lockupGlow)"/>
  <circle cx="164" cy="72" r="17" stroke="#7CF2C6" stroke-opacity="0.22" stroke-width="6"/>
  <text x="258" y="145" fill="#F8FAFC" font-family="Segoe UI, Helvetica Neue, Arial, sans-serif" font-size="74" font-weight="700" letter-spacing="-2.4">Essentials</text>
</svg>