<svg width="820" height="240" viewBox="0 0 820 240" fill="none" xmlns="http://www.w3.org/2000/svg">
  <rect width="820" height="240" rx="48" fill="#0A1118"/>
  <rect x="22" y="22" width="196" height="196" rx="44" fill="url(#panel)"/>
  <path d="M74 80C74 69.5066 82.5066 61 93 61H139C176.555 61 207 91.4446 207 129C207 166.555 176.555 197 139 197H93C82.5066 197 74 188.493 74 178V80Z" fill="#111C25"/>
  <path d="M106 97H140C159.33 97 175 112.67 175 132C175 151.33 159.33 167 140 167H106V97Z" fill="#F0C566"/>
  <path d="M106 132H154" stroke="#0E1821" stroke-width="14" stroke-linecap="round"/>
  <circle cx="184" cy="92" r="16" fill="#FF7A59"/>
  <circle cx="184" cy="182" r="10" fill="#37C3B6"/>
  <path d="M268 96H422.96C458.474 96 480.4 115.934 480.4 148.106C480.4 178.994 458.193 198 423.1 198H314.44V152.964H407.7C421.42 152.964 429.78 147.366 429.78 136.672C429.78 126.118 421.42 120.52 407.7 120.52H314.44V198H268V96Z" fill="#F6F8FB"/>
  <path d="M513.322 198V96H562.542L598.942 156.462L635.482 96H684.702V198H639.252V138.296L610.522 186.542H586.802L558.772 138.436V198H513.322Z" fill="#F6F8FB"/>
  <path d="M713.01 96H759.16V198H713.01V96ZM713.01 59H759.16V84.2H713.01V59Z" fill="#F0C566"/>
  <defs>
    <linearGradient id="panel" x1="40" y1="32" x2="206" y2="214" gradientUnits="userSpaceOnUse">
      <stop stop-color="#13212D"/>
      <stop offset="1" stop-color="#133D40"/>
    </linearGradient>
  </defs>
</svg>
