<svg width="900" height="280" viewBox="0 0 900 280" fill="none" xmlns="http://www.w3.org/2000/svg">
  <defs>
    <linearGradient id="lockupBg" x1="26" y1="22" x2="230" y2="230" gradientUnits="userSpaceOnUse">
      <stop stop-color="#121826" />
      <stop offset="0.58" stop-color="#0A0F17" />
      <stop offset="1" stop-color="#05070B" />
    </linearGradient>
    <linearGradient id="lockupAccent" x1="76" y1="62" x2="196" y2="206" gradientUnits="userSpaceOnUse">
      <stop stop-color="#F8FAFC" />
      <stop offset="0.52" stop-color="#CFFFE7" />
      <stop offset="1" stop-color="#7CF2C6" />
    </linearGradient>
    <linearGradient id="lockupGlow" x1="176" y1="76" x2="208" y2="110" gradientUnits="userSpaceOnUse">
      <stop stop-color="#7CF2C6" />
      <stop offset="1" stop-color="#30C48D" />
    </linearGradient>
  </defs>
  <rect width="900" height="280" rx="54" fill="#020407"/>
  <rect x="26" y="26" width="228" height="228" rx="54" fill="url(#lockupBg)"/>
  <rect x="26.75" y="26.75" width="226.5" height="226.5" rx="53.25" stroke="rgba(255,255,255,0.08)" stroke-width="1.5"/>
  <path d="M90 82C90 73.163 97.1634 66 106 66H192C196.418 66 200 69.5817 200 74C200 78.4183 196.418 82 192 82H122V120H176C180.418 120 184 123.582 184 128C184 132.418 180.418 136 176 136H122V198H194C198.418 198 202 201.582 202 206C202 210.418 198.418 214 194 214H106C97.1634 214 90 206.837 90 198V82Z" fill="url(#lockupAccent)"/>
  <path d="M122 98H182C186.418 98 190 101.582 190 106C190 110.418 186.418 114 182 114H122V98Z" fill="#081019" fill-opacity="0.92"/>
  <path d="M122 154H170C174.418 154 178 157.582 178 162C178 166.418 174.418 170 170 170H122V154Z" fill="#081019" fill-opacity="0.92"/>
  <circle cx="190" cy="82" r="10" fill="url(#lockupGlow)"/>
  <circle cx="190" cy="82" r="18" stroke="#7CF2C6" stroke-opacity="0.22" stroke-width="6"/>
  <text x="304" y="167" fill="#F8FAFC" font-family="Segoe UI, Helvetica Neue, Arial, sans-serif" font-size="92" font-weight="700" letter-spacing="-3">Essentials</text>
</svg>